<mxfile host="Electron" agent="Mozilla/5.0 (X11; Linux x86_64) AppleWebKit/537.36 (KHTML, like Gecko) draw.io/24.7.5 Chrome/126.0.6478.183 Electron/31.3.0 Safari/537.36" version="24.7.5">
  <diagram name="Page-1" id="PTkPmon57DQdtrVPdXi-">
    <mxGraphModel dx="1467" dy="908" grid="1" gridSize="10" guides="1" tooltips="1" connect="1" arrows="1" fold="1" page="1" pageScale="1" pageWidth="827" pageHeight="1169" math="0" shadow="0">
      <root>
        <mxCell id="0" />
        <mxCell id="1" parent="0" />
        <mxCell id="dGdvfBQ7qSdlbU3VzCC5-10" value="" style="verticalLabelPosition=bottom;shadow=0;dashed=0;align=center;html=1;verticalAlign=top;shape=mxgraph.electrical.logic_gates.inverter_2" parent="1" vertex="1">
          <mxGeometry x="620" y="330" width="20" height="10" as="geometry" />
        </mxCell>
        <mxCell id="dGdvfBQ7qSdlbU3VzCC5-15" value="" style="verticalLabelPosition=bottom;shadow=0;dashed=0;align=center;html=1;verticalAlign=top;shape=mxgraph.electrical.logic_gates.inverter_2" parent="1" vertex="1">
          <mxGeometry x="830" y="320" width="20" height="10" as="geometry" />
        </mxCell>
        <mxCell id="dGdvfBQ7qSdlbU3VzCC5-16" style="edgeStyle=orthogonalEdgeStyle;rounded=0;orthogonalLoop=1;jettySize=auto;html=1;entryX=0;entryY=0.25;entryDx=0;entryDy=0;entryPerimeter=0;endArrow=none;endFill=0;" parent="1" source="dGdvfBQ7qSdlbU3VzCC5-15" target="dGdvfBQ7qSdlbU3VzCC5-265" edge="1">
          <mxGeometry relative="1" as="geometry">
            <mxPoint x="870" y="325" as="targetPoint" />
          </mxGeometry>
        </mxCell>
        <mxCell id="dGdvfBQ7qSdlbU3VzCC5-17" value="" style="shape=offPageConnector;whiteSpace=wrap;html=1;rotation=-90;" parent="1" vertex="1">
          <mxGeometry x="760" y="270" width="10" height="20" as="geometry" />
        </mxCell>
        <mxCell id="dGdvfBQ7qSdlbU3VzCC5-18" style="edgeStyle=orthogonalEdgeStyle;rounded=0;orthogonalLoop=1;jettySize=auto;html=1;entryX=0;entryY=0.5;entryDx=0;entryDy=0;entryPerimeter=0;endArrow=none;endFill=0;" parent="1" source="dGdvfBQ7qSdlbU3VzCC5-17" target="dGdvfBQ7qSdlbU3VzCC5-15" edge="1">
          <mxGeometry relative="1" as="geometry" />
        </mxCell>
        <mxCell id="dGdvfBQ7qSdlbU3VzCC5-21" value="" style="edgeStyle=orthogonalEdgeStyle;rounded=0;orthogonalLoop=1;jettySize=auto;html=1;endArrow=none;endFill=0;" parent="1" source="dGdvfBQ7qSdlbU3VzCC5-22" edge="1">
          <mxGeometry relative="1" as="geometry">
            <mxPoint x="600" y="410" as="targetPoint" />
          </mxGeometry>
        </mxCell>
        <mxCell id="dGdvfBQ7qSdlbU3VzCC5-22" value="" style="shape=offPageConnector;whiteSpace=wrap;html=1;rotation=-90;" parent="1" vertex="1">
          <mxGeometry x="460" y="400" width="10" height="20" as="geometry" />
        </mxCell>
        <mxCell id="dGdvfBQ7qSdlbU3VzCC5-24" value="A" style="text;html=1;align=center;verticalAlign=middle;resizable=0;points=[];autosize=1;strokeColor=none;fillColor=none;" parent="1" vertex="1">
          <mxGeometry x="440" y="380" width="30" height="30" as="geometry" />
        </mxCell>
        <mxCell id="dGdvfBQ7qSdlbU3VzCC5-25" value="L" style="text;html=1;align=center;verticalAlign=middle;resizable=0;points=[];autosize=1;strokeColor=none;fillColor=none;" parent="1" vertex="1">
          <mxGeometry x="740" y="250" width="30" height="30" as="geometry" />
        </mxCell>
        <mxCell id="dGdvfBQ7qSdlbU3VzCC5-26" value="" style="verticalLabelPosition=bottom;shadow=0;dashed=0;align=center;html=1;verticalAlign=top;shape=mxgraph.electrical.logic_gates.inverter_2" parent="1" vertex="1">
          <mxGeometry x="610" y="395" width="20" height="10" as="geometry" />
        </mxCell>
        <mxCell id="dGdvfBQ7qSdlbU3VzCC5-284" style="edgeStyle=orthogonalEdgeStyle;rounded=0;orthogonalLoop=1;jettySize=auto;html=1;endArrow=none;endFill=0;" parent="1" source="dGdvfBQ7qSdlbU3VzCC5-28" edge="1">
          <mxGeometry relative="1" as="geometry">
            <mxPoint x="629.9999999999999" y="325" as="targetPoint" />
          </mxGeometry>
        </mxCell>
        <mxCell id="dGdvfBQ7qSdlbU3VzCC5-28" value="" style="shape=offPageConnector;whiteSpace=wrap;html=1;rotation=-90;" parent="1" vertex="1">
          <mxGeometry x="460" y="315" width="10" height="20" as="geometry" />
        </mxCell>
        <mxCell id="dGdvfBQ7qSdlbU3VzCC5-29" value="R" style="text;html=1;align=center;verticalAlign=middle;resizable=0;points=[];autosize=1;strokeColor=none;fillColor=none;" parent="1" vertex="1">
          <mxGeometry x="440" y="300" width="30" height="30" as="geometry" />
        </mxCell>
        <mxCell id="dGdvfBQ7qSdlbU3VzCC5-124" value="" style="shape=trapezoid;perimeter=trapezoidPerimeter;whiteSpace=wrap;html=1;fixedSize=1;rotation=-180;size=20;fillColor=#fff2cc;strokeColor=#d6b656;" parent="1" vertex="1">
          <mxGeometry x="965" y="370" width="70" height="30" as="geometry" />
        </mxCell>
        <mxCell id="dGdvfBQ7qSdlbU3VzCC5-125" style="edgeStyle=orthogonalEdgeStyle;rounded=0;orthogonalLoop=1;jettySize=auto;html=1;entryX=0.029;entryY=0;entryDx=0;entryDy=0;entryPerimeter=0;endArrow=none;endFill=0;" parent="1" source="dGdvfBQ7qSdlbU3VzCC5-124" edge="1">
          <mxGeometry relative="1" as="geometry">
            <mxPoint x="1000.3000000000002" y="450" as="targetPoint" />
          </mxGeometry>
        </mxCell>
        <mxCell id="dGdvfBQ7qSdlbU3VzCC5-127" value="" style="shape=trapezoid;perimeter=trapezoidPerimeter;whiteSpace=wrap;html=1;fixedSize=1;rotation=-180;size=20;fillColor=#fff2cc;strokeColor=#d6b656;" parent="1" vertex="1">
          <mxGeometry x="1045" y="370" width="70" height="30" as="geometry" />
        </mxCell>
        <mxCell id="dGdvfBQ7qSdlbU3VzCC5-128" style="edgeStyle=orthogonalEdgeStyle;rounded=0;orthogonalLoop=1;jettySize=auto;html=1;entryX=0.029;entryY=0;entryDx=0;entryDy=0;entryPerimeter=0;endArrow=none;endFill=0;" parent="1" source="dGdvfBQ7qSdlbU3VzCC5-127" edge="1">
          <mxGeometry relative="1" as="geometry">
            <mxPoint x="1080" y="450" as="targetPoint" />
          </mxGeometry>
        </mxCell>
        <mxCell id="dGdvfBQ7qSdlbU3VzCC5-129" value="" style="shape=trapezoid;perimeter=trapezoidPerimeter;whiteSpace=wrap;html=1;fixedSize=1;rotation=-180;size=20;fillColor=#fff2cc;strokeColor=#d6b656;" parent="1" vertex="1">
          <mxGeometry x="1125" y="370" width="70" height="30" as="geometry" />
        </mxCell>
        <mxCell id="dGdvfBQ7qSdlbU3VzCC5-130" style="edgeStyle=orthogonalEdgeStyle;rounded=0;orthogonalLoop=1;jettySize=auto;html=1;entryX=0.029;entryY=0;entryDx=0;entryDy=0;entryPerimeter=0;endArrow=none;endFill=0;" parent="1" source="dGdvfBQ7qSdlbU3VzCC5-129" edge="1">
          <mxGeometry relative="1" as="geometry">
            <mxPoint x="1160.3000000000002" y="450" as="targetPoint" />
          </mxGeometry>
        </mxCell>
        <mxCell id="dGdvfBQ7qSdlbU3VzCC5-131" value="" style="shape=trapezoid;perimeter=trapezoidPerimeter;whiteSpace=wrap;html=1;fixedSize=1;rotation=-180;size=20;fillColor=#fff2cc;strokeColor=#d6b656;" parent="1" vertex="1">
          <mxGeometry x="1205" y="370" width="70" height="30" as="geometry" />
        </mxCell>
        <mxCell id="dGdvfBQ7qSdlbU3VzCC5-132" style="edgeStyle=orthogonalEdgeStyle;rounded=0;orthogonalLoop=1;jettySize=auto;html=1;entryX=0.029;entryY=0;entryDx=0;entryDy=0;entryPerimeter=0;endArrow=none;endFill=0;" parent="1" source="dGdvfBQ7qSdlbU3VzCC5-131" edge="1">
          <mxGeometry relative="1" as="geometry">
            <mxPoint x="1240" y="450" as="targetPoint" />
          </mxGeometry>
        </mxCell>
        <mxCell id="dGdvfBQ7qSdlbU3VzCC5-141" value="" style="shape=trapezoid;perimeter=trapezoidPerimeter;whiteSpace=wrap;html=1;fixedSize=1;rotation=-180;size=20;fillColor=#fff2cc;strokeColor=#d6b656;" parent="1" vertex="1">
          <mxGeometry x="1445" y="370" width="70" height="30" as="geometry" />
        </mxCell>
        <mxCell id="dGdvfBQ7qSdlbU3VzCC5-142" style="edgeStyle=orthogonalEdgeStyle;rounded=0;orthogonalLoop=1;jettySize=auto;html=1;entryX=0.029;entryY=0;entryDx=0;entryDy=0;entryPerimeter=0;endArrow=none;endFill=0;" parent="1" source="dGdvfBQ7qSdlbU3VzCC5-141" edge="1">
          <mxGeometry relative="1" as="geometry">
            <mxPoint x="1480.3000000000002" y="450" as="targetPoint" />
          </mxGeometry>
        </mxCell>
        <mxCell id="dGdvfBQ7qSdlbU3VzCC5-143" value="" style="shape=trapezoid;perimeter=trapezoidPerimeter;whiteSpace=wrap;html=1;fixedSize=1;rotation=-180;size=20;fillColor=#fff2cc;strokeColor=#d6b656;" parent="1" vertex="1">
          <mxGeometry x="1525" y="370" width="70" height="30" as="geometry" />
        </mxCell>
        <mxCell id="dGdvfBQ7qSdlbU3VzCC5-144" style="edgeStyle=orthogonalEdgeStyle;rounded=0;orthogonalLoop=1;jettySize=auto;html=1;entryX=0.029;entryY=0;entryDx=0;entryDy=0;entryPerimeter=0;endArrow=none;endFill=0;" parent="1" source="dGdvfBQ7qSdlbU3VzCC5-143" edge="1">
          <mxGeometry relative="1" as="geometry">
            <mxPoint x="1560" y="450" as="targetPoint" />
          </mxGeometry>
        </mxCell>
        <mxCell id="dGdvfBQ7qSdlbU3VzCC5-145" value="" style="shape=trapezoid;perimeter=trapezoidPerimeter;whiteSpace=wrap;html=1;fixedSize=1;rotation=-180;size=20;fillColor=#fff2cc;strokeColor=#d6b656;" parent="1" vertex="1">
          <mxGeometry x="1605" y="370" width="70" height="30" as="geometry" />
        </mxCell>
        <mxCell id="dGdvfBQ7qSdlbU3VzCC5-146" style="edgeStyle=orthogonalEdgeStyle;rounded=0;orthogonalLoop=1;jettySize=auto;html=1;entryX=0.029;entryY=0;entryDx=0;entryDy=0;entryPerimeter=0;endArrow=none;endFill=0;" parent="1" source="dGdvfBQ7qSdlbU3VzCC5-145" edge="1">
          <mxGeometry relative="1" as="geometry">
            <mxPoint x="1640.3000000000002" y="450" as="targetPoint" />
          </mxGeometry>
        </mxCell>
        <mxCell id="dGdvfBQ7qSdlbU3VzCC5-147" value="" style="shape=trapezoid;perimeter=trapezoidPerimeter;whiteSpace=wrap;html=1;fixedSize=1;rotation=-180;size=20;fillColor=#fff2cc;strokeColor=#d6b656;" parent="1" vertex="1">
          <mxGeometry x="1690" y="370" width="70" height="30" as="geometry" />
        </mxCell>
        <mxCell id="dGdvfBQ7qSdlbU3VzCC5-148" style="edgeStyle=orthogonalEdgeStyle;rounded=0;orthogonalLoop=1;jettySize=auto;html=1;entryX=0.029;entryY=0;entryDx=0;entryDy=0;entryPerimeter=0;endArrow=none;endFill=0;" parent="1" source="dGdvfBQ7qSdlbU3VzCC5-147" edge="1">
          <mxGeometry relative="1" as="geometry">
            <mxPoint x="1725" y="450" as="targetPoint" />
          </mxGeometry>
        </mxCell>
        <mxCell id="dGdvfBQ7qSdlbU3VzCC5-149" value="" style="rounded=1;whiteSpace=wrap;html=1;" parent="1" vertex="1">
          <mxGeometry x="970" y="450" width="790" height="60" as="geometry" />
        </mxCell>
        <mxCell id="dGdvfBQ7qSdlbU3VzCC5-150" value="" style="endArrow=none;html=1;rounded=0;entryX=0.08;entryY=0.04;entryDx=0;entryDy=0;entryPerimeter=0;exitX=0.079;exitY=1.04;exitDx=0;exitDy=0;exitPerimeter=0;" parent="1" edge="1">
          <mxGeometry width="50" height="50" relative="1" as="geometry">
            <mxPoint x="1035" y="510" as="sourcePoint" />
            <mxPoint x="1035.79" y="450.0000000000001" as="targetPoint" />
          </mxGeometry>
        </mxCell>
        <mxCell id="dGdvfBQ7qSdlbU3VzCC5-151" value="" style="endArrow=none;html=1;rounded=0;entryX=0.08;entryY=0.04;entryDx=0;entryDy=0;entryPerimeter=0;exitX=0.079;exitY=1.04;exitDx=0;exitDy=0;exitPerimeter=0;" parent="1" edge="1">
          <mxGeometry width="50" height="50" relative="1" as="geometry">
            <mxPoint x="1120" y="510" as="sourcePoint" />
            <mxPoint x="1120.79" y="450.0000000000001" as="targetPoint" />
          </mxGeometry>
        </mxCell>
        <mxCell id="dGdvfBQ7qSdlbU3VzCC5-152" value="" style="endArrow=none;html=1;rounded=0;entryX=0.08;entryY=0.04;entryDx=0;entryDy=0;entryPerimeter=0;exitX=0.079;exitY=1.04;exitDx=0;exitDy=0;exitPerimeter=0;" parent="1" edge="1">
          <mxGeometry width="50" height="50" relative="1" as="geometry">
            <mxPoint x="1198" y="510" as="sourcePoint" />
            <mxPoint x="1198.79" y="450.0000000000001" as="targetPoint" />
          </mxGeometry>
        </mxCell>
        <mxCell id="dGdvfBQ7qSdlbU3VzCC5-153" value="" style="endArrow=none;html=1;rounded=0;entryX=0.08;entryY=0.04;entryDx=0;entryDy=0;entryPerimeter=0;exitX=0.079;exitY=1.04;exitDx=0;exitDy=0;exitPerimeter=0;" parent="1" edge="1">
          <mxGeometry width="50" height="50" relative="1" as="geometry">
            <mxPoint x="1283" y="510" as="sourcePoint" />
            <mxPoint x="1283.79" y="450.0000000000001" as="targetPoint" />
          </mxGeometry>
        </mxCell>
        <mxCell id="dGdvfBQ7qSdlbU3VzCC5-154" value="" style="endArrow=none;html=1;rounded=0;entryX=0.08;entryY=0.04;entryDx=0;entryDy=0;entryPerimeter=0;exitX=0.079;exitY=1.04;exitDx=0;exitDy=0;exitPerimeter=0;" parent="1" edge="1">
          <mxGeometry width="50" height="50" relative="1" as="geometry">
            <mxPoint x="1435.41" y="510" as="sourcePoint" />
            <mxPoint x="1436.2" y="450.0000000000001" as="targetPoint" />
          </mxGeometry>
        </mxCell>
        <mxCell id="dGdvfBQ7qSdlbU3VzCC5-155" value="" style="endArrow=none;html=1;rounded=0;entryX=0.08;entryY=0.04;entryDx=0;entryDy=0;entryPerimeter=0;exitX=0.079;exitY=1.04;exitDx=0;exitDy=0;exitPerimeter=0;" parent="1" edge="1">
          <mxGeometry width="50" height="50" relative="1" as="geometry">
            <mxPoint x="1520.41" y="510" as="sourcePoint" />
            <mxPoint x="1521.2" y="450.0000000000001" as="targetPoint" />
          </mxGeometry>
        </mxCell>
        <mxCell id="dGdvfBQ7qSdlbU3VzCC5-156" value="" style="endArrow=none;html=1;rounded=0;entryX=0.08;entryY=0.04;entryDx=0;entryDy=0;entryPerimeter=0;exitX=0.079;exitY=1.04;exitDx=0;exitDy=0;exitPerimeter=0;" parent="1" edge="1">
          <mxGeometry width="50" height="50" relative="1" as="geometry">
            <mxPoint x="1598.41" y="510" as="sourcePoint" />
            <mxPoint x="1599.2" y="450.0000000000001" as="targetPoint" />
          </mxGeometry>
        </mxCell>
        <mxCell id="dGdvfBQ7qSdlbU3VzCC5-157" value="" style="endArrow=none;html=1;rounded=0;entryX=0.08;entryY=0.04;entryDx=0;entryDy=0;entryPerimeter=0;exitX=0.079;exitY=1.04;exitDx=0;exitDy=0;exitPerimeter=0;" parent="1" edge="1">
          <mxGeometry width="50" height="50" relative="1" as="geometry">
            <mxPoint x="1683.41" y="510" as="sourcePoint" />
            <mxPoint x="1684.2" y="450.0000000000001" as="targetPoint" />
          </mxGeometry>
        </mxCell>
        <mxCell id="dGdvfBQ7qSdlbU3VzCC5-158" value="B31" style="text;html=1;align=center;verticalAlign=middle;resizable=0;points=[];autosize=1;strokeColor=none;fillColor=none;" parent="1" vertex="1">
          <mxGeometry x="980" y="465" width="40" height="30" as="geometry" />
        </mxCell>
        <mxCell id="dGdvfBQ7qSdlbU3VzCC5-159" value="B30" style="text;html=1;align=center;verticalAlign=middle;resizable=0;points=[];autosize=1;strokeColor=none;fillColor=none;" parent="1" vertex="1">
          <mxGeometry x="1060" y="465" width="40" height="30" as="geometry" />
        </mxCell>
        <mxCell id="dGdvfBQ7qSdlbU3VzCC5-160" value="B29" style="text;html=1;align=center;verticalAlign=middle;resizable=0;points=[];autosize=1;strokeColor=none;fillColor=none;" parent="1" vertex="1">
          <mxGeometry x="1140" y="465" width="40" height="30" as="geometry" />
        </mxCell>
        <mxCell id="dGdvfBQ7qSdlbU3VzCC5-161" value="B28" style="text;html=1;align=center;verticalAlign=middle;resizable=0;points=[];autosize=1;strokeColor=none;fillColor=none;" parent="1" vertex="1">
          <mxGeometry x="1220" y="465" width="40" height="30" as="geometry" />
        </mxCell>
        <mxCell id="dGdvfBQ7qSdlbU3VzCC5-167" value="B3" style="text;html=1;align=center;verticalAlign=middle;resizable=0;points=[];autosize=1;strokeColor=none;fillColor=none;" parent="1" vertex="1">
          <mxGeometry x="1460" y="465" width="40" height="30" as="geometry" />
        </mxCell>
        <mxCell id="dGdvfBQ7qSdlbU3VzCC5-168" value="B2" style="text;html=1;align=center;verticalAlign=middle;resizable=0;points=[];autosize=1;strokeColor=none;fillColor=none;" parent="1" vertex="1">
          <mxGeometry x="1540" y="465" width="40" height="30" as="geometry" />
        </mxCell>
        <mxCell id="dGdvfBQ7qSdlbU3VzCC5-169" value="B1" style="text;html=1;align=center;verticalAlign=middle;resizable=0;points=[];autosize=1;strokeColor=none;fillColor=none;" parent="1" vertex="1">
          <mxGeometry x="1620" y="465" width="40" height="30" as="geometry" />
        </mxCell>
        <mxCell id="dGdvfBQ7qSdlbU3VzCC5-170" value="B0" style="text;html=1;align=center;verticalAlign=middle;resizable=0;points=[];autosize=1;strokeColor=none;fillColor=none;" parent="1" vertex="1">
          <mxGeometry x="1700" y="465" width="40" height="30" as="geometry" />
        </mxCell>
        <mxCell id="dGdvfBQ7qSdlbU3VzCC5-171" value="" style="rounded=1;whiteSpace=wrap;html=1;" parent="1" vertex="1">
          <mxGeometry x="970" y="50" width="790" height="60" as="geometry" />
        </mxCell>
        <mxCell id="dGdvfBQ7qSdlbU3VzCC5-172" value="" style="endArrow=none;html=1;rounded=0;entryX=0.08;entryY=0.04;entryDx=0;entryDy=0;entryPerimeter=0;exitX=0.079;exitY=1.04;exitDx=0;exitDy=0;exitPerimeter=0;" parent="1" edge="1">
          <mxGeometry width="50" height="50" relative="1" as="geometry">
            <mxPoint x="1035" y="110" as="sourcePoint" />
            <mxPoint x="1035.79" y="50.000000000000114" as="targetPoint" />
          </mxGeometry>
        </mxCell>
        <mxCell id="dGdvfBQ7qSdlbU3VzCC5-173" value="" style="endArrow=none;html=1;rounded=0;entryX=0.08;entryY=0.04;entryDx=0;entryDy=0;entryPerimeter=0;exitX=0.079;exitY=1.04;exitDx=0;exitDy=0;exitPerimeter=0;" parent="1" edge="1">
          <mxGeometry width="50" height="50" relative="1" as="geometry">
            <mxPoint x="1120" y="110" as="sourcePoint" />
            <mxPoint x="1120.79" y="50.000000000000114" as="targetPoint" />
          </mxGeometry>
        </mxCell>
        <mxCell id="dGdvfBQ7qSdlbU3VzCC5-174" value="" style="endArrow=none;html=1;rounded=0;entryX=0.08;entryY=0.04;entryDx=0;entryDy=0;entryPerimeter=0;exitX=0.079;exitY=1.04;exitDx=0;exitDy=0;exitPerimeter=0;" parent="1" edge="1">
          <mxGeometry width="50" height="50" relative="1" as="geometry">
            <mxPoint x="1198" y="110" as="sourcePoint" />
            <mxPoint x="1198.79" y="50.000000000000114" as="targetPoint" />
          </mxGeometry>
        </mxCell>
        <mxCell id="dGdvfBQ7qSdlbU3VzCC5-175" value="" style="endArrow=none;html=1;rounded=0;entryX=0.08;entryY=0.04;entryDx=0;entryDy=0;entryPerimeter=0;exitX=0.079;exitY=1.04;exitDx=0;exitDy=0;exitPerimeter=0;" parent="1" edge="1">
          <mxGeometry width="50" height="50" relative="1" as="geometry">
            <mxPoint x="1283" y="110" as="sourcePoint" />
            <mxPoint x="1283.79" y="50.000000000000114" as="targetPoint" />
          </mxGeometry>
        </mxCell>
        <mxCell id="dGdvfBQ7qSdlbU3VzCC5-176" value="" style="endArrow=none;html=1;rounded=0;entryX=0.08;entryY=0.04;entryDx=0;entryDy=0;entryPerimeter=0;exitX=0.079;exitY=1.04;exitDx=0;exitDy=0;exitPerimeter=0;" parent="1" edge="1">
          <mxGeometry width="50" height="50" relative="1" as="geometry">
            <mxPoint x="1435.41" y="110" as="sourcePoint" />
            <mxPoint x="1436.2" y="50.000000000000114" as="targetPoint" />
          </mxGeometry>
        </mxCell>
        <mxCell id="dGdvfBQ7qSdlbU3VzCC5-177" value="" style="endArrow=none;html=1;rounded=0;entryX=0.08;entryY=0.04;entryDx=0;entryDy=0;entryPerimeter=0;exitX=0.079;exitY=1.04;exitDx=0;exitDy=0;exitPerimeter=0;" parent="1" edge="1">
          <mxGeometry width="50" height="50" relative="1" as="geometry">
            <mxPoint x="1520.41" y="110" as="sourcePoint" />
            <mxPoint x="1521.2" y="50.000000000000114" as="targetPoint" />
          </mxGeometry>
        </mxCell>
        <mxCell id="dGdvfBQ7qSdlbU3VzCC5-178" value="" style="endArrow=none;html=1;rounded=0;entryX=0.08;entryY=0.04;entryDx=0;entryDy=0;entryPerimeter=0;exitX=0.079;exitY=1.04;exitDx=0;exitDy=0;exitPerimeter=0;" parent="1" edge="1">
          <mxGeometry width="50" height="50" relative="1" as="geometry">
            <mxPoint x="1598.41" y="110" as="sourcePoint" />
            <mxPoint x="1599.2" y="50.000000000000114" as="targetPoint" />
          </mxGeometry>
        </mxCell>
        <mxCell id="dGdvfBQ7qSdlbU3VzCC5-179" value="" style="endArrow=none;html=1;rounded=0;entryX=0.08;entryY=0.04;entryDx=0;entryDy=0;entryPerimeter=0;exitX=0.079;exitY=1.04;exitDx=0;exitDy=0;exitPerimeter=0;" parent="1" edge="1">
          <mxGeometry width="50" height="50" relative="1" as="geometry">
            <mxPoint x="1683.41" y="110" as="sourcePoint" />
            <mxPoint x="1684.2" y="50.000000000000114" as="targetPoint" />
          </mxGeometry>
        </mxCell>
        <mxCell id="dGdvfBQ7qSdlbU3VzCC5-180" value="b31" style="text;html=1;align=center;verticalAlign=middle;resizable=0;points=[];autosize=1;strokeColor=none;fillColor=none;" parent="1" vertex="1">
          <mxGeometry x="980" y="65" width="40" height="30" as="geometry" />
        </mxCell>
        <mxCell id="dGdvfBQ7qSdlbU3VzCC5-181" value="b30" style="text;html=1;align=center;verticalAlign=middle;resizable=0;points=[];autosize=1;strokeColor=none;fillColor=none;" parent="1" vertex="1">
          <mxGeometry x="1060" y="65" width="40" height="30" as="geometry" />
        </mxCell>
        <mxCell id="dGdvfBQ7qSdlbU3VzCC5-182" value="b29" style="text;html=1;align=center;verticalAlign=middle;resizable=0;points=[];autosize=1;strokeColor=none;fillColor=none;" parent="1" vertex="1">
          <mxGeometry x="1140" y="65" width="40" height="30" as="geometry" />
        </mxCell>
        <mxCell id="dGdvfBQ7qSdlbU3VzCC5-183" value="b28" style="text;html=1;align=center;verticalAlign=middle;resizable=0;points=[];autosize=1;strokeColor=none;fillColor=none;" parent="1" vertex="1">
          <mxGeometry x="1220" y="65" width="40" height="30" as="geometry" />
        </mxCell>
        <mxCell id="dGdvfBQ7qSdlbU3VzCC5-184" value="b3" style="text;html=1;align=center;verticalAlign=middle;resizable=0;points=[];autosize=1;strokeColor=none;fillColor=none;" parent="1" vertex="1">
          <mxGeometry x="1460" y="65" width="40" height="30" as="geometry" />
        </mxCell>
        <mxCell id="dGdvfBQ7qSdlbU3VzCC5-185" value="b2" style="text;html=1;align=center;verticalAlign=middle;resizable=0;points=[];autosize=1;strokeColor=none;fillColor=none;" parent="1" vertex="1">
          <mxGeometry x="1540" y="65" width="40" height="30" as="geometry" />
        </mxCell>
        <mxCell id="dGdvfBQ7qSdlbU3VzCC5-186" value="b1" style="text;html=1;align=center;verticalAlign=middle;resizable=0;points=[];autosize=1;strokeColor=none;fillColor=none;" parent="1" vertex="1">
          <mxGeometry x="1620" y="65" width="40" height="30" as="geometry" />
        </mxCell>
        <mxCell id="dGdvfBQ7qSdlbU3VzCC5-187" value="b0" style="text;html=1;align=center;verticalAlign=middle;resizable=0;points=[];autosize=1;strokeColor=none;fillColor=none;" parent="1" vertex="1">
          <mxGeometry x="1700" y="65" width="40" height="30" as="geometry" />
        </mxCell>
        <mxCell id="dGdvfBQ7qSdlbU3VzCC5-188" value="" style="endArrow=none;dashed=1;html=1;dashPattern=1 3;strokeWidth=2;rounded=0;" parent="1" edge="1">
          <mxGeometry width="50" height="50" relative="1" as="geometry">
            <mxPoint x="1430" y="79.71000000000001" as="sourcePoint" />
            <mxPoint x="1285" y="79.71000000000001" as="targetPoint" />
          </mxGeometry>
        </mxCell>
        <mxCell id="dGdvfBQ7qSdlbU3VzCC5-189" value="" style="endArrow=none;dashed=1;html=1;dashPattern=1 3;strokeWidth=2;rounded=0;" parent="1" edge="1">
          <mxGeometry width="50" height="50" relative="1" as="geometry">
            <mxPoint x="1430" y="479.82" as="sourcePoint" />
            <mxPoint x="1285" y="479.82" as="targetPoint" />
          </mxGeometry>
        </mxCell>
        <mxCell id="dGdvfBQ7qSdlbU3VzCC5-190" value="" style="endArrow=none;html=1;rounded=0;exitX=0.75;exitY=1;exitDx=0;exitDy=0;" parent="1" edge="1">
          <mxGeometry width="50" height="50" relative="1" as="geometry">
            <mxPoint x="979.5" y="370" as="sourcePoint" />
            <mxPoint x="980" y="350" as="targetPoint" />
          </mxGeometry>
        </mxCell>
        <mxCell id="dGdvfBQ7qSdlbU3VzCC5-191" value="" style="endArrow=none;html=1;rounded=0;exitX=0.75;exitY=1;exitDx=0;exitDy=0;" parent="1" edge="1">
          <mxGeometry width="50" height="50" relative="1" as="geometry">
            <mxPoint x="1019.6" y="370" as="sourcePoint" />
            <mxPoint x="1019.6" y="350" as="targetPoint" />
          </mxGeometry>
        </mxCell>
        <mxCell id="dGdvfBQ7qSdlbU3VzCC5-192" value="&lt;font style=&quot;font-size: 7px;&quot;&gt;1&lt;/font&gt;" style="text;html=1;align=center;verticalAlign=middle;resizable=0;points=[];autosize=1;strokeColor=none;fillColor=none;" parent="1" vertex="1">
          <mxGeometry x="965" y="360" width="30" height="30" as="geometry" />
        </mxCell>
        <mxCell id="dGdvfBQ7qSdlbU3VzCC5-193" value="&lt;font style=&quot;font-size: 7px;&quot;&gt;0&lt;/font&gt;" style="text;html=1;align=center;verticalAlign=middle;resizable=0;points=[];autosize=1;strokeColor=none;fillColor=none;" parent="1" vertex="1">
          <mxGeometry x="1005" y="360" width="30" height="30" as="geometry" />
        </mxCell>
        <mxCell id="dGdvfBQ7qSdlbU3VzCC5-196" value="" style="endArrow=none;html=1;rounded=0;exitX=0.75;exitY=1;exitDx=0;exitDy=0;" parent="1" edge="1">
          <mxGeometry width="50" height="50" relative="1" as="geometry">
            <mxPoint x="1059.5" y="370" as="sourcePoint" />
            <mxPoint x="1060" y="350" as="targetPoint" />
          </mxGeometry>
        </mxCell>
        <mxCell id="dGdvfBQ7qSdlbU3VzCC5-197" value="" style="endArrow=none;html=1;rounded=0;exitX=0.75;exitY=1;exitDx=0;exitDy=0;" parent="1" edge="1">
          <mxGeometry width="50" height="50" relative="1" as="geometry">
            <mxPoint x="1099.6" y="370" as="sourcePoint" />
            <mxPoint x="1099.6" y="350" as="targetPoint" />
          </mxGeometry>
        </mxCell>
        <mxCell id="dGdvfBQ7qSdlbU3VzCC5-198" value="&lt;font style=&quot;font-size: 7px;&quot;&gt;1&lt;/font&gt;" style="text;html=1;align=center;verticalAlign=middle;resizable=0;points=[];autosize=1;strokeColor=none;fillColor=none;" parent="1" vertex="1">
          <mxGeometry x="1045" y="360" width="30" height="30" as="geometry" />
        </mxCell>
        <mxCell id="dGdvfBQ7qSdlbU3VzCC5-199" value="&lt;font style=&quot;font-size: 7px;&quot;&gt;0&lt;/font&gt;" style="text;html=1;align=center;verticalAlign=middle;resizable=0;points=[];autosize=1;strokeColor=none;fillColor=none;" parent="1" vertex="1">
          <mxGeometry x="1085" y="360" width="30" height="30" as="geometry" />
        </mxCell>
        <mxCell id="dGdvfBQ7qSdlbU3VzCC5-200" value="" style="endArrow=none;html=1;rounded=0;exitX=0.75;exitY=1;exitDx=0;exitDy=0;" parent="1" edge="1">
          <mxGeometry width="50" height="50" relative="1" as="geometry">
            <mxPoint x="1139.5" y="370" as="sourcePoint" />
            <mxPoint x="1140" y="350" as="targetPoint" />
          </mxGeometry>
        </mxCell>
        <mxCell id="dGdvfBQ7qSdlbU3VzCC5-201" value="" style="endArrow=none;html=1;rounded=0;exitX=0.75;exitY=1;exitDx=0;exitDy=0;" parent="1" edge="1">
          <mxGeometry width="50" height="50" relative="1" as="geometry">
            <mxPoint x="1179.6" y="370" as="sourcePoint" />
            <mxPoint x="1179.6" y="350" as="targetPoint" />
          </mxGeometry>
        </mxCell>
        <mxCell id="dGdvfBQ7qSdlbU3VzCC5-202" value="&lt;font style=&quot;font-size: 7px;&quot;&gt;1&lt;/font&gt;" style="text;html=1;align=center;verticalAlign=middle;resizable=0;points=[];autosize=1;strokeColor=none;fillColor=none;" parent="1" vertex="1">
          <mxGeometry x="1125" y="360" width="30" height="30" as="geometry" />
        </mxCell>
        <mxCell id="dGdvfBQ7qSdlbU3VzCC5-203" value="&lt;font style=&quot;font-size: 7px;&quot;&gt;0&lt;/font&gt;" style="text;html=1;align=center;verticalAlign=middle;resizable=0;points=[];autosize=1;strokeColor=none;fillColor=none;" parent="1" vertex="1">
          <mxGeometry x="1165" y="360" width="30" height="30" as="geometry" />
        </mxCell>
        <mxCell id="dGdvfBQ7qSdlbU3VzCC5-204" value="" style="endArrow=none;html=1;rounded=0;exitX=0.75;exitY=1;exitDx=0;exitDy=0;" parent="1" edge="1">
          <mxGeometry width="50" height="50" relative="1" as="geometry">
            <mxPoint x="1219.5" y="370" as="sourcePoint" />
            <mxPoint x="1220" y="350" as="targetPoint" />
          </mxGeometry>
        </mxCell>
        <mxCell id="dGdvfBQ7qSdlbU3VzCC5-205" value="" style="endArrow=none;html=1;rounded=0;exitX=0.75;exitY=1;exitDx=0;exitDy=0;" parent="1" edge="1">
          <mxGeometry width="50" height="50" relative="1" as="geometry">
            <mxPoint x="1259.6" y="370" as="sourcePoint" />
            <mxPoint x="1259.6" y="350" as="targetPoint" />
          </mxGeometry>
        </mxCell>
        <mxCell id="dGdvfBQ7qSdlbU3VzCC5-206" value="&lt;font style=&quot;font-size: 7px;&quot;&gt;1&lt;/font&gt;" style="text;html=1;align=center;verticalAlign=middle;resizable=0;points=[];autosize=1;strokeColor=none;fillColor=none;" parent="1" vertex="1">
          <mxGeometry x="1205" y="360" width="30" height="30" as="geometry" />
        </mxCell>
        <mxCell id="dGdvfBQ7qSdlbU3VzCC5-207" value="&lt;font style=&quot;font-size: 7px;&quot;&gt;0&lt;/font&gt;" style="text;html=1;align=center;verticalAlign=middle;resizable=0;points=[];autosize=1;strokeColor=none;fillColor=none;" parent="1" vertex="1">
          <mxGeometry x="1245" y="360" width="30" height="30" as="geometry" />
        </mxCell>
        <mxCell id="dGdvfBQ7qSdlbU3VzCC5-208" value="" style="endArrow=none;html=1;rounded=0;exitX=0.75;exitY=1;exitDx=0;exitDy=0;" parent="1" edge="1">
          <mxGeometry width="50" height="50" relative="1" as="geometry">
            <mxPoint x="1459.5" y="370" as="sourcePoint" />
            <mxPoint x="1460" y="350" as="targetPoint" />
          </mxGeometry>
        </mxCell>
        <mxCell id="dGdvfBQ7qSdlbU3VzCC5-209" value="" style="endArrow=none;html=1;rounded=0;exitX=0.75;exitY=1;exitDx=0;exitDy=0;" parent="1" edge="1">
          <mxGeometry width="50" height="50" relative="1" as="geometry">
            <mxPoint x="1499.6" y="370" as="sourcePoint" />
            <mxPoint x="1499.6" y="350" as="targetPoint" />
          </mxGeometry>
        </mxCell>
        <mxCell id="dGdvfBQ7qSdlbU3VzCC5-210" value="&lt;font style=&quot;font-size: 7px;&quot;&gt;1&lt;/font&gt;" style="text;html=1;align=center;verticalAlign=middle;resizable=0;points=[];autosize=1;strokeColor=none;fillColor=none;" parent="1" vertex="1">
          <mxGeometry x="1445" y="360" width="30" height="30" as="geometry" />
        </mxCell>
        <mxCell id="dGdvfBQ7qSdlbU3VzCC5-211" value="&lt;font style=&quot;font-size: 7px;&quot;&gt;0&lt;/font&gt;" style="text;html=1;align=center;verticalAlign=middle;resizable=0;points=[];autosize=1;strokeColor=none;fillColor=none;" parent="1" vertex="1">
          <mxGeometry x="1485" y="360" width="30" height="30" as="geometry" />
        </mxCell>
        <mxCell id="dGdvfBQ7qSdlbU3VzCC5-212" value="" style="endArrow=none;html=1;rounded=0;exitX=0.75;exitY=1;exitDx=0;exitDy=0;" parent="1" edge="1">
          <mxGeometry width="50" height="50" relative="1" as="geometry">
            <mxPoint x="1539.5" y="370" as="sourcePoint" />
            <mxPoint x="1540" y="350" as="targetPoint" />
          </mxGeometry>
        </mxCell>
        <mxCell id="dGdvfBQ7qSdlbU3VzCC5-213" value="" style="endArrow=none;html=1;rounded=0;exitX=0.75;exitY=1;exitDx=0;exitDy=0;" parent="1" edge="1">
          <mxGeometry width="50" height="50" relative="1" as="geometry">
            <mxPoint x="1579.6" y="370" as="sourcePoint" />
            <mxPoint x="1579.6" y="350" as="targetPoint" />
          </mxGeometry>
        </mxCell>
        <mxCell id="dGdvfBQ7qSdlbU3VzCC5-214" value="&lt;font style=&quot;font-size: 7px;&quot;&gt;1&lt;/font&gt;" style="text;html=1;align=center;verticalAlign=middle;resizable=0;points=[];autosize=1;strokeColor=none;fillColor=none;" parent="1" vertex="1">
          <mxGeometry x="1525" y="360" width="30" height="30" as="geometry" />
        </mxCell>
        <mxCell id="dGdvfBQ7qSdlbU3VzCC5-215" value="&lt;font style=&quot;font-size: 7px;&quot;&gt;0&lt;/font&gt;" style="text;html=1;align=center;verticalAlign=middle;resizable=0;points=[];autosize=1;strokeColor=none;fillColor=none;" parent="1" vertex="1">
          <mxGeometry x="1565" y="360" width="30" height="30" as="geometry" />
        </mxCell>
        <mxCell id="dGdvfBQ7qSdlbU3VzCC5-216" value="" style="endArrow=none;html=1;rounded=0;exitX=0.75;exitY=1;exitDx=0;exitDy=0;" parent="1" edge="1">
          <mxGeometry width="50" height="50" relative="1" as="geometry">
            <mxPoint x="1619.5" y="370" as="sourcePoint" />
            <mxPoint x="1620" y="350" as="targetPoint" />
          </mxGeometry>
        </mxCell>
        <mxCell id="dGdvfBQ7qSdlbU3VzCC5-217" value="" style="endArrow=none;html=1;rounded=0;exitX=0.75;exitY=1;exitDx=0;exitDy=0;" parent="1" edge="1">
          <mxGeometry width="50" height="50" relative="1" as="geometry">
            <mxPoint x="1659.6" y="370" as="sourcePoint" />
            <mxPoint x="1659.6" y="350" as="targetPoint" />
          </mxGeometry>
        </mxCell>
        <mxCell id="dGdvfBQ7qSdlbU3VzCC5-218" value="&lt;font style=&quot;font-size: 7px;&quot;&gt;1&lt;/font&gt;" style="text;html=1;align=center;verticalAlign=middle;resizable=0;points=[];autosize=1;strokeColor=none;fillColor=none;" parent="1" vertex="1">
          <mxGeometry x="1605" y="360" width="30" height="30" as="geometry" />
        </mxCell>
        <mxCell id="dGdvfBQ7qSdlbU3VzCC5-219" value="&lt;font style=&quot;font-size: 7px;&quot;&gt;0&lt;/font&gt;" style="text;html=1;align=center;verticalAlign=middle;resizable=0;points=[];autosize=1;strokeColor=none;fillColor=none;" parent="1" vertex="1">
          <mxGeometry x="1645" y="360" width="30" height="30" as="geometry" />
        </mxCell>
        <mxCell id="dGdvfBQ7qSdlbU3VzCC5-220" value="" style="endArrow=none;html=1;rounded=0;exitX=0.75;exitY=1;exitDx=0;exitDy=0;" parent="1" edge="1">
          <mxGeometry width="50" height="50" relative="1" as="geometry">
            <mxPoint x="1699.5" y="370" as="sourcePoint" />
            <mxPoint x="1700" y="350" as="targetPoint" />
          </mxGeometry>
        </mxCell>
        <mxCell id="dGdvfBQ7qSdlbU3VzCC5-221" value="" style="endArrow=none;html=1;rounded=0;exitX=0.75;exitY=1;exitDx=0;exitDy=0;" parent="1" edge="1">
          <mxGeometry width="50" height="50" relative="1" as="geometry">
            <mxPoint x="1739.6" y="370" as="sourcePoint" />
            <mxPoint x="1739.6" y="350" as="targetPoint" />
          </mxGeometry>
        </mxCell>
        <mxCell id="dGdvfBQ7qSdlbU3VzCC5-222" value="&lt;font style=&quot;font-size: 7px;&quot;&gt;1&lt;/font&gt;" style="text;html=1;align=center;verticalAlign=middle;resizable=0;points=[];autosize=1;strokeColor=none;fillColor=none;" parent="1" vertex="1">
          <mxGeometry x="1685" y="360" width="30" height="30" as="geometry" />
        </mxCell>
        <mxCell id="dGdvfBQ7qSdlbU3VzCC5-223" value="&lt;font style=&quot;font-size: 7px;&quot;&gt;0&lt;/font&gt;" style="text;html=1;align=center;verticalAlign=middle;resizable=0;points=[];autosize=1;strokeColor=none;fillColor=none;" parent="1" vertex="1">
          <mxGeometry x="1725" y="360" width="30" height="30" as="geometry" />
        </mxCell>
        <mxCell id="dGdvfBQ7qSdlbU3VzCC5-225" value="" style="endArrow=none;html=1;rounded=0;entryX=0.041;entryY=1.012;entryDx=0;entryDy=0;entryPerimeter=0;" parent="1" edge="1">
          <mxGeometry width="50" height="50" relative="1" as="geometry">
            <mxPoint x="999.81" y="139.28" as="sourcePoint" />
            <mxPoint x="1000.2" y="110.00000000000003" as="targetPoint" />
          </mxGeometry>
        </mxCell>
        <mxCell id="dGdvfBQ7qSdlbU3VzCC5-226" value="" style="endArrow=none;html=1;rounded=0;entryX=0.041;entryY=1.012;entryDx=0;entryDy=0;entryPerimeter=0;" parent="1" edge="1">
          <mxGeometry width="50" height="50" relative="1" as="geometry">
            <mxPoint x="1079.43" y="139" as="sourcePoint" />
            <mxPoint x="1079.43" y="110" as="targetPoint" />
          </mxGeometry>
        </mxCell>
        <mxCell id="dGdvfBQ7qSdlbU3VzCC5-227" value="" style="endArrow=none;html=1;rounded=0;entryX=0.041;entryY=1.012;entryDx=0;entryDy=0;entryPerimeter=0;" parent="1" edge="1">
          <mxGeometry width="50" height="50" relative="1" as="geometry">
            <mxPoint x="1160" y="140" as="sourcePoint" />
            <mxPoint x="1160" y="111" as="targetPoint" />
          </mxGeometry>
        </mxCell>
        <mxCell id="dGdvfBQ7qSdlbU3VzCC5-228" value="" style="endArrow=none;html=1;rounded=0;entryX=0.041;entryY=1.012;entryDx=0;entryDy=0;entryPerimeter=0;" parent="1" edge="1">
          <mxGeometry width="50" height="50" relative="1" as="geometry">
            <mxPoint x="1240" y="140" as="sourcePoint" />
            <mxPoint x="1240" y="110" as="targetPoint" />
          </mxGeometry>
        </mxCell>
        <mxCell id="dGdvfBQ7qSdlbU3VzCC5-229" value="" style="endArrow=none;html=1;rounded=0;entryX=0.041;entryY=1.012;entryDx=0;entryDy=0;entryPerimeter=0;" parent="1" edge="1">
          <mxGeometry width="50" height="50" relative="1" as="geometry">
            <mxPoint x="1480" y="140" as="sourcePoint" />
            <mxPoint x="1480" y="111" as="targetPoint" />
          </mxGeometry>
        </mxCell>
        <mxCell id="dGdvfBQ7qSdlbU3VzCC5-230" value="" style="endArrow=none;html=1;rounded=0;entryX=0.041;entryY=1.012;entryDx=0;entryDy=0;entryPerimeter=0;" parent="1" edge="1">
          <mxGeometry width="50" height="50" relative="1" as="geometry">
            <mxPoint x="1559.5800000000002" y="139" as="sourcePoint" />
            <mxPoint x="1559.5800000000002" y="110" as="targetPoint" />
          </mxGeometry>
        </mxCell>
        <mxCell id="dGdvfBQ7qSdlbU3VzCC5-231" value="" style="endArrow=none;html=1;rounded=0;entryX=0.041;entryY=1.012;entryDx=0;entryDy=0;entryPerimeter=0;" parent="1" edge="1">
          <mxGeometry width="50" height="50" relative="1" as="geometry">
            <mxPoint x="1639.83" y="139" as="sourcePoint" />
            <mxPoint x="1639.83" y="110" as="targetPoint" />
          </mxGeometry>
        </mxCell>
        <mxCell id="dGdvfBQ7qSdlbU3VzCC5-232" value="" style="endArrow=none;html=1;rounded=0;entryX=0.041;entryY=1.012;entryDx=0;entryDy=0;entryPerimeter=0;" parent="1" edge="1">
          <mxGeometry width="50" height="50" relative="1" as="geometry">
            <mxPoint x="1719.5800000000002" y="139" as="sourcePoint" />
            <mxPoint x="1719.5800000000002" y="110" as="targetPoint" />
          </mxGeometry>
        </mxCell>
        <mxCell id="dGdvfBQ7qSdlbU3VzCC5-233" value="" style="endArrow=none;html=1;rounded=0;fillColor=#a20025;strokeColor=#6F0000;" parent="1" edge="1">
          <mxGeometry width="50" height="50" relative="1" as="geometry">
            <mxPoint x="1020" y="350" as="sourcePoint" />
            <mxPoint x="1080" y="140" as="targetPoint" />
          </mxGeometry>
        </mxCell>
        <mxCell id="dGdvfBQ7qSdlbU3VzCC5-236" value="" style="endArrow=none;html=1;rounded=0;fillColor=#a20025;strokeColor=#6F0000;" parent="1" edge="1">
          <mxGeometry width="50" height="50" relative="1" as="geometry">
            <mxPoint x="1100" y="350" as="sourcePoint" />
            <mxPoint x="1160" y="140" as="targetPoint" />
          </mxGeometry>
        </mxCell>
        <mxCell id="dGdvfBQ7qSdlbU3VzCC5-237" value="" style="endArrow=none;html=1;rounded=0;fillColor=#a20025;strokeColor=#6F0000;" parent="1" edge="1">
          <mxGeometry width="50" height="50" relative="1" as="geometry">
            <mxPoint x="1180" y="350" as="sourcePoint" />
            <mxPoint x="1240" y="140" as="targetPoint" />
          </mxGeometry>
        </mxCell>
        <mxCell id="dGdvfBQ7qSdlbU3VzCC5-239" value="" style="endArrow=none;html=1;rounded=0;fillColor=#a20025;strokeColor=#6F0000;" parent="1" edge="1">
          <mxGeometry width="50" height="50" relative="1" as="geometry">
            <mxPoint x="1500" y="350" as="sourcePoint" />
            <mxPoint x="1560" y="140" as="targetPoint" />
          </mxGeometry>
        </mxCell>
        <mxCell id="dGdvfBQ7qSdlbU3VzCC5-240" value="" style="endArrow=none;html=1;rounded=0;fillColor=#a20025;strokeColor=#6F0000;" parent="1" edge="1">
          <mxGeometry width="50" height="50" relative="1" as="geometry">
            <mxPoint x="1580" y="350" as="sourcePoint" />
            <mxPoint x="1640" y="140" as="targetPoint" />
          </mxGeometry>
        </mxCell>
        <mxCell id="dGdvfBQ7qSdlbU3VzCC5-241" value="" style="endArrow=none;html=1;rounded=0;fillColor=#a20025;strokeColor=#6F0000;" parent="1" edge="1">
          <mxGeometry width="50" height="50" relative="1" as="geometry">
            <mxPoint x="1660" y="350" as="sourcePoint" />
            <mxPoint x="1720" y="140" as="targetPoint" />
          </mxGeometry>
        </mxCell>
        <mxCell id="dGdvfBQ7qSdlbU3VzCC5-243" value="" style="endArrow=none;html=1;rounded=0;fillColor=#a20025;strokeColor=#6F0000;" parent="1" edge="1">
          <mxGeometry width="50" height="50" relative="1" as="geometry">
            <mxPoint x="1420" y="350" as="sourcePoint" />
            <mxPoint x="1480" y="140" as="targetPoint" />
          </mxGeometry>
        </mxCell>
        <mxCell id="dGdvfBQ7qSdlbU3VzCC5-244" value="" style="endArrow=none;dashed=1;html=1;dashPattern=1 3;strokeWidth=2;rounded=0;" parent="1" edge="1">
          <mxGeometry width="50" height="50" relative="1" as="geometry">
            <mxPoint x="1430" y="279.67" as="sourcePoint" />
            <mxPoint x="1290" y="280" as="targetPoint" />
          </mxGeometry>
        </mxCell>
        <mxCell id="dGdvfBQ7qSdlbU3VzCC5-245" value="" style="endArrow=none;html=1;rounded=0;fillColor=#60a917;strokeColor=#2D7600;" parent="1" edge="1">
          <mxGeometry width="50" height="50" relative="1" as="geometry">
            <mxPoint x="1060" y="350" as="sourcePoint" />
            <mxPoint x="1000" y="140" as="targetPoint" />
          </mxGeometry>
        </mxCell>
        <mxCell id="dGdvfBQ7qSdlbU3VzCC5-246" value="" style="endArrow=none;html=1;rounded=0;fillColor=#60a917;strokeColor=#2D7600;" parent="1" edge="1">
          <mxGeometry width="50" height="50" relative="1" as="geometry">
            <mxPoint x="1140" y="350" as="sourcePoint" />
            <mxPoint x="1080" y="140" as="targetPoint" />
          </mxGeometry>
        </mxCell>
        <mxCell id="dGdvfBQ7qSdlbU3VzCC5-247" value="" style="endArrow=none;html=1;rounded=0;fillColor=#60a917;strokeColor=#2D7600;" parent="1" edge="1">
          <mxGeometry width="50" height="50" relative="1" as="geometry">
            <mxPoint x="1220" y="350" as="sourcePoint" />
            <mxPoint x="1160" y="140" as="targetPoint" />
          </mxGeometry>
        </mxCell>
        <mxCell id="dGdvfBQ7qSdlbU3VzCC5-248" value="" style="endArrow=none;html=1;rounded=0;fillColor=#60a917;strokeColor=#2D7600;" parent="1" edge="1">
          <mxGeometry width="50" height="50" relative="1" as="geometry">
            <mxPoint x="1300" y="350" as="sourcePoint" />
            <mxPoint x="1240" y="140" as="targetPoint" />
          </mxGeometry>
        </mxCell>
        <mxCell id="dGdvfBQ7qSdlbU3VzCC5-251" value="" style="endArrow=none;html=1;rounded=0;fillColor=#a20025;strokeColor=#6F0000;" parent="1" edge="1">
          <mxGeometry width="50" height="50" relative="1" as="geometry">
            <mxPoint x="1260" y="350" as="sourcePoint" />
            <mxPoint x="1320" y="140" as="targetPoint" />
          </mxGeometry>
        </mxCell>
        <mxCell id="dGdvfBQ7qSdlbU3VzCC5-252" value="" style="endArrow=none;html=1;rounded=0;fillColor=#60a917;strokeColor=#2D7600;" parent="1" edge="1">
          <mxGeometry width="50" height="50" relative="1" as="geometry">
            <mxPoint x="1460" y="350" as="sourcePoint" />
            <mxPoint x="1400" y="140" as="targetPoint" />
          </mxGeometry>
        </mxCell>
        <mxCell id="dGdvfBQ7qSdlbU3VzCC5-253" value="" style="endArrow=none;html=1;rounded=0;fillColor=#60a917;strokeColor=#2D7600;" parent="1" edge="1">
          <mxGeometry width="50" height="50" relative="1" as="geometry">
            <mxPoint x="1540" y="350" as="sourcePoint" />
            <mxPoint x="1480" y="140" as="targetPoint" />
          </mxGeometry>
        </mxCell>
        <mxCell id="dGdvfBQ7qSdlbU3VzCC5-254" value="" style="endArrow=none;html=1;rounded=0;fillColor=#60a917;strokeColor=#2D7600;" parent="1" edge="1">
          <mxGeometry width="50" height="50" relative="1" as="geometry">
            <mxPoint x="1620" y="350" as="sourcePoint" />
            <mxPoint x="1560" y="140" as="targetPoint" />
          </mxGeometry>
        </mxCell>
        <mxCell id="dGdvfBQ7qSdlbU3VzCC5-255" value="" style="endArrow=none;html=1;rounded=0;fillColor=#60a917;strokeColor=#2D7600;" parent="1" edge="1">
          <mxGeometry width="50" height="50" relative="1" as="geometry">
            <mxPoint x="1700" y="350" as="sourcePoint" />
            <mxPoint x="1640" y="140" as="targetPoint" />
          </mxGeometry>
        </mxCell>
        <mxCell id="dGdvfBQ7qSdlbU3VzCC5-257" value="" style="verticalLabelPosition=bottom;shadow=0;dashed=0;align=center;html=1;verticalAlign=top;shape=mxgraph.electrical.logic_gates.logic_gate;operation=and;rotation=90;" parent="1" vertex="1">
          <mxGeometry x="1715" y="305" width="50" height="40" as="geometry" />
        </mxCell>
        <mxCell id="dGdvfBQ7qSdlbU3VzCC5-259" value="R" style="text;html=1;align=center;verticalAlign=middle;resizable=0;points=[];autosize=1;strokeColor=none;fillColor=none;" parent="1" vertex="1">
          <mxGeometry x="1800" y="250" width="30" height="30" as="geometry" />
        </mxCell>
        <mxCell id="dGdvfBQ7qSdlbU3VzCC5-260" value="" style="shape=offPageConnector;whiteSpace=wrap;html=1;rotation=90;" parent="1" vertex="1">
          <mxGeometry x="1802.5" y="267.5" width="10" height="25" as="geometry" />
        </mxCell>
        <mxCell id="dGdvfBQ7qSdlbU3VzCC5-261" style="edgeStyle=orthogonalEdgeStyle;rounded=0;orthogonalLoop=1;jettySize=auto;html=1;entryX=0;entryY=0.25;entryDx=0;entryDy=0;entryPerimeter=0;endArrow=none;endFill=0;" parent="1" source="dGdvfBQ7qSdlbU3VzCC5-260" target="dGdvfBQ7qSdlbU3VzCC5-257" edge="1">
          <mxGeometry relative="1" as="geometry" />
        </mxCell>
        <mxCell id="dGdvfBQ7qSdlbU3VzCC5-262" value="" style="endArrow=none;html=1;rounded=0;fillColor=#60a917;strokeColor=#2D7600;" parent="1" edge="1">
          <mxGeometry width="50" height="50" relative="1" as="geometry">
            <mxPoint x="1070" y="300" as="sourcePoint" />
            <mxPoint x="1020" y="140" as="targetPoint" />
          </mxGeometry>
        </mxCell>
        <mxCell id="dGdvfBQ7qSdlbU3VzCC5-263" value="" style="endArrow=none;html=1;rounded=0;fillColor=#60a917;strokeColor=#2D7600;" parent="1" edge="1">
          <mxGeometry width="50" height="50" relative="1" as="geometry">
            <mxPoint x="1000" y="140" as="sourcePoint" />
            <mxPoint x="1020" y="140" as="targetPoint" />
          </mxGeometry>
        </mxCell>
        <mxCell id="dGdvfBQ7qSdlbU3VzCC5-264" value="" style="endArrow=none;html=1;rounded=0;entryX=0;entryY=0.75;entryDx=0;entryDy=0;entryPerimeter=0;fillColor=#60a917;strokeColor=#2D7600;" parent="1" target="dGdvfBQ7qSdlbU3VzCC5-257" edge="1">
          <mxGeometry width="50" height="50" relative="1" as="geometry">
            <mxPoint x="1070" y="300" as="sourcePoint" />
            <mxPoint x="1310" y="320" as="targetPoint" />
          </mxGeometry>
        </mxCell>
        <mxCell id="dGdvfBQ7qSdlbU3VzCC5-289" style="edgeStyle=orthogonalEdgeStyle;rounded=0;orthogonalLoop=1;jettySize=auto;html=1;exitX=1;exitY=0.5;exitDx=0;exitDy=0;exitPerimeter=0;endArrow=none;endFill=0;" parent="1" source="dGdvfBQ7qSdlbU3VzCC5-265" edge="1">
          <mxGeometry relative="1" as="geometry">
            <mxPoint x="980" y="350" as="targetPoint" />
            <Array as="points">
              <mxPoint x="980" y="340" />
            </Array>
          </mxGeometry>
        </mxCell>
        <mxCell id="dGdvfBQ7qSdlbU3VzCC5-265" value="" style="verticalLabelPosition=bottom;shadow=0;dashed=0;align=center;html=1;verticalAlign=top;shape=mxgraph.electrical.logic_gates.logic_gate;operation=and;rotation=0;" parent="1" vertex="1">
          <mxGeometry x="870" y="320" width="50" height="40" as="geometry" />
        </mxCell>
        <mxCell id="dGdvfBQ7qSdlbU3VzCC5-266" value="" style="verticalLabelPosition=bottom;shadow=0;dashed=0;align=center;html=1;verticalAlign=top;shape=mxgraph.electrical.logic_gates.logic_gate;operation=or;" parent="1" vertex="1">
          <mxGeometry x="760" y="335" width="55" height="35" as="geometry" />
        </mxCell>
        <mxCell id="dGdvfBQ7qSdlbU3VzCC5-267" style="edgeStyle=orthogonalEdgeStyle;rounded=0;orthogonalLoop=1;jettySize=auto;html=1;entryX=0;entryY=0.75;entryDx=0;entryDy=0;entryPerimeter=0;endArrow=none;endFill=0;" parent="1" source="dGdvfBQ7qSdlbU3VzCC5-266" target="dGdvfBQ7qSdlbU3VzCC5-265" edge="1">
          <mxGeometry relative="1" as="geometry" />
        </mxCell>
        <mxCell id="dGdvfBQ7qSdlbU3VzCC5-286" style="edgeStyle=orthogonalEdgeStyle;rounded=0;orthogonalLoop=1;jettySize=auto;html=1;exitX=0;exitY=0.25;exitDx=0;exitDy=0;exitPerimeter=0;endArrow=none;endFill=0;" parent="1" source="dGdvfBQ7qSdlbU3VzCC5-268" edge="1">
          <mxGeometry relative="1" as="geometry">
            <mxPoint x="1700" y="170" as="targetPoint" />
            <Array as="points">
              <mxPoint x="620" y="315" />
              <mxPoint x="620" y="170" />
              <mxPoint x="1698" y="170" />
            </Array>
          </mxGeometry>
        </mxCell>
        <mxCell id="dGdvfBQ7qSdlbU3VzCC5-268" value="" style="verticalLabelPosition=bottom;shadow=0;dashed=0;align=center;html=1;verticalAlign=top;shape=mxgraph.electrical.logic_gates.logic_gate;operation=and;rotation=0;" parent="1" vertex="1">
          <mxGeometry x="640" y="305" width="50" height="40" as="geometry" />
        </mxCell>
        <mxCell id="dGdvfBQ7qSdlbU3VzCC5-269" value="" style="endArrow=none;html=1;rounded=0;entryX=0.193;entryY=0.503;entryDx=0;entryDy=0;entryPerimeter=0;" parent="1" target="dGdvfBQ7qSdlbU3VzCC5-268" edge="1">
          <mxGeometry width="50" height="50" relative="1" as="geometry">
            <mxPoint x="630" y="325" as="sourcePoint" />
            <mxPoint x="710" y="290" as="targetPoint" />
          </mxGeometry>
        </mxCell>
        <mxCell id="dGdvfBQ7qSdlbU3VzCC5-270" style="edgeStyle=orthogonalEdgeStyle;rounded=0;orthogonalLoop=1;jettySize=auto;html=1;entryX=0;entryY=0.25;entryDx=0;entryDy=0;entryPerimeter=0;endArrow=none;endFill=0;" parent="1" source="dGdvfBQ7qSdlbU3VzCC5-268" target="dGdvfBQ7qSdlbU3VzCC5-266" edge="1">
          <mxGeometry relative="1" as="geometry" />
        </mxCell>
        <mxCell id="dGdvfBQ7qSdlbU3VzCC5-285" style="edgeStyle=orthogonalEdgeStyle;rounded=0;orthogonalLoop=1;jettySize=auto;html=1;exitX=0;exitY=0.25;exitDx=0;exitDy=0;exitPerimeter=0;endArrow=none;endFill=0;" parent="1" source="dGdvfBQ7qSdlbU3VzCC5-271" edge="1">
          <mxGeometry relative="1" as="geometry">
            <mxPoint x="1000" y="140" as="targetPoint" />
            <Array as="points">
              <mxPoint x="610" y="390" />
              <mxPoint x="610" y="140" />
            </Array>
          </mxGeometry>
        </mxCell>
        <mxCell id="dGdvfBQ7qSdlbU3VzCC5-271" value="" style="verticalLabelPosition=bottom;shadow=0;dashed=0;align=center;html=1;verticalAlign=top;shape=mxgraph.electrical.logic_gates.logic_gate;operation=and;rotation=0;" parent="1" vertex="1">
          <mxGeometry x="640" y="380" width="50" height="40" as="geometry" />
        </mxCell>
        <mxCell id="dGdvfBQ7qSdlbU3VzCC5-272" value="" style="endArrow=none;html=1;rounded=0;entryX=0.193;entryY=0.503;entryDx=0;entryDy=0;entryPerimeter=0;" parent="1" target="dGdvfBQ7qSdlbU3VzCC5-271" edge="1">
          <mxGeometry width="50" height="50" relative="1" as="geometry">
            <mxPoint x="630" y="400" as="sourcePoint" />
            <mxPoint x="710" y="365" as="targetPoint" />
          </mxGeometry>
        </mxCell>
        <mxCell id="dGdvfBQ7qSdlbU3VzCC5-273" style="edgeStyle=orthogonalEdgeStyle;rounded=0;orthogonalLoop=1;jettySize=auto;html=1;entryX=0;entryY=0.75;entryDx=0;entryDy=0;entryPerimeter=0;endArrow=none;endFill=0;" parent="1" source="dGdvfBQ7qSdlbU3VzCC5-271" target="dGdvfBQ7qSdlbU3VzCC5-266" edge="1">
          <mxGeometry relative="1" as="geometry" />
        </mxCell>
        <mxCell id="dGdvfBQ7qSdlbU3VzCC5-278" style="edgeStyle=orthogonalEdgeStyle;rounded=0;orthogonalLoop=1;jettySize=auto;html=1;entryX=0;entryY=0.75;entryDx=0;entryDy=0;entryPerimeter=0;endArrow=none;endFill=0;" parent="1" edge="1">
          <mxGeometry relative="1" as="geometry">
            <mxPoint x="600" y="410" as="sourcePoint" />
            <mxPoint x="640" y="410" as="targetPoint" />
            <Array as="points">
              <mxPoint x="620" y="410" />
              <mxPoint x="620" y="410" />
            </Array>
          </mxGeometry>
        </mxCell>
        <mxCell id="dGdvfBQ7qSdlbU3VzCC5-279" value="" style="endArrow=none;html=1;rounded=0;entryX=0.5;entryY=1;entryDx=0;entryDy=0;exitX=0;exitY=0.5;exitDx=0;exitDy=0;exitPerimeter=0;" parent="1" source="dGdvfBQ7qSdlbU3VzCC5-26" target="dGdvfBQ7qSdlbU3VzCC5-28" edge="1">
          <mxGeometry width="50" height="50" relative="1" as="geometry">
            <mxPoint x="600" y="390" as="sourcePoint" />
            <mxPoint x="540" y="340" as="targetPoint" />
          </mxGeometry>
        </mxCell>
        <mxCell id="dGdvfBQ7qSdlbU3VzCC5-281" value="" style="endArrow=none;html=1;rounded=0;exitX=0.5;exitY=1;exitDx=0;exitDy=0;entryX=0;entryY=0.5;entryDx=0;entryDy=0;entryPerimeter=0;" parent="1" source="dGdvfBQ7qSdlbU3VzCC5-22" target="dGdvfBQ7qSdlbU3VzCC5-10" edge="1">
          <mxGeometry width="50" height="50" relative="1" as="geometry">
            <mxPoint x="640" y="410" as="sourcePoint" />
            <mxPoint x="610" y="340" as="targetPoint" />
          </mxGeometry>
        </mxCell>
        <mxCell id="dGdvfBQ7qSdlbU3VzCC5-287" value="" style="endArrow=none;html=1;rounded=0;" parent="1" edge="1">
          <mxGeometry width="50" height="50" relative="1" as="geometry">
            <mxPoint x="1710" y="140" as="sourcePoint" />
            <mxPoint x="1720" y="140" as="targetPoint" />
          </mxGeometry>
        </mxCell>
        <mxCell id="dGdvfBQ7qSdlbU3VzCC5-288" value="" style="endArrow=none;html=1;rounded=0;" parent="1" edge="1">
          <mxGeometry width="50" height="50" relative="1" as="geometry">
            <mxPoint x="1700" y="170" as="sourcePoint" />
            <mxPoint x="1710" y="140" as="targetPoint" />
          </mxGeometry>
        </mxCell>
        <mxCell id="bbnXS2IHLm_K1xOq12Ej-1" value="" style="endArrow=none;html=1;rounded=0;" edge="1" parent="1">
          <mxGeometry width="50" height="50" relative="1" as="geometry">
            <mxPoint x="925" y="390" as="sourcePoint" />
            <mxPoint x="980" y="390" as="targetPoint" />
          </mxGeometry>
        </mxCell>
        <mxCell id="bbnXS2IHLm_K1xOq12Ej-2" value="" style="endArrow=none;html=1;rounded=0;" edge="1" parent="1">
          <mxGeometry width="50" height="50" relative="1" as="geometry">
            <mxPoint x="925" y="395" as="sourcePoint" />
            <mxPoint x="980" y="395" as="targetPoint" />
          </mxGeometry>
        </mxCell>
        <mxCell id="bbnXS2IHLm_K1xOq12Ej-3" value="" style="endArrow=none;html=1;rounded=0;" edge="1" parent="1">
          <mxGeometry width="50" height="50" relative="1" as="geometry">
            <mxPoint x="1020" y="390" as="sourcePoint" />
            <mxPoint x="1060" y="390" as="targetPoint" />
          </mxGeometry>
        </mxCell>
        <mxCell id="bbnXS2IHLm_K1xOq12Ej-4" value="" style="endArrow=none;html=1;rounded=0;" edge="1" parent="1">
          <mxGeometry width="50" height="50" relative="1" as="geometry">
            <mxPoint x="1020" y="395" as="sourcePoint" />
            <mxPoint x="1060" y="395" as="targetPoint" />
          </mxGeometry>
        </mxCell>
        <mxCell id="bbnXS2IHLm_K1xOq12Ej-5" value="" style="endArrow=none;html=1;rounded=0;" edge="1" parent="1">
          <mxGeometry width="50" height="50" relative="1" as="geometry">
            <mxPoint x="1100" y="390" as="sourcePoint" />
            <mxPoint x="1140" y="390" as="targetPoint" />
          </mxGeometry>
        </mxCell>
        <mxCell id="bbnXS2IHLm_K1xOq12Ej-6" value="" style="endArrow=none;html=1;rounded=0;" edge="1" parent="1">
          <mxGeometry width="50" height="50" relative="1" as="geometry">
            <mxPoint x="1100" y="395" as="sourcePoint" />
            <mxPoint x="1140" y="395" as="targetPoint" />
          </mxGeometry>
        </mxCell>
        <mxCell id="bbnXS2IHLm_K1xOq12Ej-7" value="" style="endArrow=none;html=1;rounded=0;" edge="1" parent="1">
          <mxGeometry width="50" height="50" relative="1" as="geometry">
            <mxPoint x="1180" y="390" as="sourcePoint" />
            <mxPoint x="1220" y="390" as="targetPoint" />
          </mxGeometry>
        </mxCell>
        <mxCell id="bbnXS2IHLm_K1xOq12Ej-8" value="" style="endArrow=none;html=1;rounded=0;" edge="1" parent="1">
          <mxGeometry width="50" height="50" relative="1" as="geometry">
            <mxPoint x="1180" y="395" as="sourcePoint" />
            <mxPoint x="1220" y="395" as="targetPoint" />
          </mxGeometry>
        </mxCell>
        <mxCell id="bbnXS2IHLm_K1xOq12Ej-9" value="" style="endArrow=none;html=1;rounded=0;" edge="1" parent="1">
          <mxGeometry width="50" height="50" relative="1" as="geometry">
            <mxPoint x="1500" y="390" as="sourcePoint" />
            <mxPoint x="1540" y="390" as="targetPoint" />
          </mxGeometry>
        </mxCell>
        <mxCell id="bbnXS2IHLm_K1xOq12Ej-10" value="" style="endArrow=none;html=1;rounded=0;" edge="1" parent="1">
          <mxGeometry width="50" height="50" relative="1" as="geometry">
            <mxPoint x="1500" y="395" as="sourcePoint" />
            <mxPoint x="1540" y="395" as="targetPoint" />
          </mxGeometry>
        </mxCell>
        <mxCell id="bbnXS2IHLm_K1xOq12Ej-11" value="" style="endArrow=none;html=1;rounded=0;" edge="1" parent="1">
          <mxGeometry width="50" height="50" relative="1" as="geometry">
            <mxPoint x="1580" y="389.58" as="sourcePoint" />
            <mxPoint x="1620" y="389.58" as="targetPoint" />
          </mxGeometry>
        </mxCell>
        <mxCell id="bbnXS2IHLm_K1xOq12Ej-12" value="" style="endArrow=none;html=1;rounded=0;" edge="1" parent="1">
          <mxGeometry width="50" height="50" relative="1" as="geometry">
            <mxPoint x="1580" y="394.58" as="sourcePoint" />
            <mxPoint x="1620" y="394.58" as="targetPoint" />
          </mxGeometry>
        </mxCell>
        <mxCell id="bbnXS2IHLm_K1xOq12Ej-13" value="" style="endArrow=none;html=1;rounded=0;entryX=0.571;entryY=0.976;entryDx=0;entryDy=0;entryPerimeter=0;exitX=0.603;exitY=0.971;exitDx=0;exitDy=0;exitPerimeter=0;" edge="1" parent="1" source="dGdvfBQ7qSdlbU3VzCC5-219" target="dGdvfBQ7qSdlbU3VzCC5-222">
          <mxGeometry width="50" height="50" relative="1" as="geometry">
            <mxPoint x="1660" y="389.58" as="sourcePoint" />
            <mxPoint x="1700" y="389.58" as="targetPoint" />
          </mxGeometry>
        </mxCell>
        <mxCell id="bbnXS2IHLm_K1xOq12Ej-14" value="" style="endArrow=none;html=1;rounded=0;entryX=0.785;entryY=0.185;entryDx=0;entryDy=0;entryPerimeter=0;" edge="1" parent="1" target="dGdvfBQ7qSdlbU3VzCC5-147">
          <mxGeometry width="50" height="50" relative="1" as="geometry">
            <mxPoint x="1660" y="394.58" as="sourcePoint" />
            <mxPoint x="1700" y="394.58" as="targetPoint" />
          </mxGeometry>
        </mxCell>
        <mxCell id="bbnXS2IHLm_K1xOq12Ej-15" value="" style="endArrow=none;html=1;rounded=0;" edge="1" parent="1">
          <mxGeometry width="50" height="50" relative="1" as="geometry">
            <mxPoint x="1260" y="390" as="sourcePoint" />
            <mxPoint x="1340" y="390" as="targetPoint" />
          </mxGeometry>
        </mxCell>
        <mxCell id="bbnXS2IHLm_K1xOq12Ej-16" value="" style="endArrow=none;html=1;rounded=0;" edge="1" parent="1">
          <mxGeometry width="50" height="50" relative="1" as="geometry">
            <mxPoint x="1260" y="395" as="sourcePoint" />
            <mxPoint x="1340" y="395" as="targetPoint" />
          </mxGeometry>
        </mxCell>
        <mxCell id="bbnXS2IHLm_K1xOq12Ej-17" value="sel" style="text;html=1;align=center;verticalAlign=middle;resizable=0;points=[];autosize=1;strokeColor=none;fillColor=none;" vertex="1" parent="1">
          <mxGeometry x="890" y="380" width="40" height="30" as="geometry" />
        </mxCell>
        <mxCell id="bbnXS2IHLm_K1xOq12Ej-18" value="" style="endArrow=none;html=1;rounded=0;" edge="1" parent="1">
          <mxGeometry width="50" height="50" relative="1" as="geometry">
            <mxPoint x="1380" y="390" as="sourcePoint" />
            <mxPoint x="1460" y="390" as="targetPoint" />
          </mxGeometry>
        </mxCell>
        <mxCell id="bbnXS2IHLm_K1xOq12Ej-19" value="" style="endArrow=none;html=1;rounded=0;" edge="1" parent="1">
          <mxGeometry width="50" height="50" relative="1" as="geometry">
            <mxPoint x="1380" y="395" as="sourcePoint" />
            <mxPoint x="1460" y="395" as="targetPoint" />
          </mxGeometry>
        </mxCell>
        <mxCell id="bbnXS2IHLm_K1xOq12Ej-20" value="" style="endArrow=none;dashed=1;html=1;dashPattern=1 3;strokeWidth=2;rounded=0;" edge="1" parent="1">
          <mxGeometry width="50" height="50" relative="1" as="geometry">
            <mxPoint x="1340" y="390" as="sourcePoint" />
            <mxPoint x="1380" y="390" as="targetPoint" />
          </mxGeometry>
        </mxCell>
        <mxCell id="bbnXS2IHLm_K1xOq12Ej-21" value="" style="endArrow=none;dashed=1;html=1;dashPattern=1 3;strokeWidth=2;rounded=0;" edge="1" parent="1">
          <mxGeometry width="50" height="50" relative="1" as="geometry">
            <mxPoint x="1345" y="395" as="sourcePoint" />
            <mxPoint x="1385" y="395" as="targetPoint" />
          </mxGeometry>
        </mxCell>
      </root>
    </mxGraphModel>
  </diagram>
</mxfile>
